<svg version="1.1" id="Layer_1" xmlns="http://www.w3.org/2000/svg" xmlns:xlink="http://www.w3.org/1999/xlink" x="0px" y="0px"
	 width="100%" viewBox="0 0 1080 1080" enable-background="new 0 0 1080 1080" xml:space="preserve">
<path fill="#F79E18" opacity="1.000000" stroke="none" 
	d="
M588.000000,1081.000000 
	C556.979126,1081.000000 525.958191,1081.000000 494.741699,1080.619385 
	C492.703461,1079.827271 490.878876,1079.285889 489.015076,1079.027344 
	C481.669769,1078.008667 474.312134,1077.078857 467.026245,1075.771118 
	C468.541504,1073.638184 469.841705,1071.702515 471.459137,1070.083618 
	C529.578552,1011.913208 587.736084,953.780701 645.830261,895.585022 
	C647.503723,893.908630 648.549072,891.605103 650.190308,889.398193 
	C670.884766,884.322510 687.748779,874.003662 700.292175,856.981079 
	C707.157593,847.663940 710.924744,836.995056 714.311646,825.937988 
	C719.079651,821.771362 723.416138,817.560791 727.974487,813.606018 
	C730.394531,811.506409 733.199768,809.850769 735.901978,808.444336 
	C736.404419,812.645630 736.875488,816.393433 737.260132,820.149963 
	C738.453491,831.804932 741.407043,843.005493 747.365479,853.101135 
	C761.792786,877.546204 783.743591,890.097229 811.760315,891.630188 
	C831.855957,892.729736 850.516968,888.365540 865.349609,873.377136 
	C865.718933,873.003784 866.355530,872.895081 867.321655,872.456970 
	C867.321655,874.455566 867.316406,875.940063 867.322632,877.424561 
	C867.349304,883.748718 868.957214,886.595825 875.180237,888.268555 
	C879.764160,889.500610 884.694458,889.816772 889.477722,889.868469 
	C908.882202,890.078552 911.928467,887.004639 911.931946,867.776428 
	C911.942566,808.615417 911.937927,749.454407 911.909607,690.293396 
	C911.907959,686.801270 911.937134,683.267639 911.445312,679.825623 
	C910.299255,671.805115 906.142639,668.160339 897.987000,667.976868 
	C890.660645,667.811951 883.327576,667.945557 876.015503,667.589355 
	C877.078918,665.597839 877.867798,663.708252 879.206482,662.367737 
	C943.196228,598.293640 1007.228577,534.262085 1071.298218,470.267853 
	C1072.653442,468.914062 1074.499146,468.051056 1076.469482,467.185425 
	C1077.552490,475.915527 1078.236816,484.423889 1079.089355,492.915344 
	C1079.164795,493.666595 1080.337158,494.307739 1081.000000,495.000000 
	C1081.000000,525.354248 1081.000000,555.708435 1080.616333,586.261047 
	C1079.832642,587.143311 1079.166260,587.792297 1079.071533,588.516235 
	C1077.011963,604.232727 1075.606079,620.061829 1072.848389,635.652466 
	C1069.883545,652.414795 1066.232788,669.106445 1061.863892,685.558716 
	C1054.027710,715.067810 1043.454346,743.653198 1030.301514,771.231689 
	C1015.625000,802.004944 998.265442,831.144775 978.182312,858.763611 
	C964.065247,878.177795 948.987976,896.752014 932.310669,913.902649 
	C918.606873,927.995361 904.015259,941.296082 889.112061,954.129028 
	C876.763306,964.762329 863.671692,974.600830 850.403564,984.084045 
	C824.011292,1002.947693 796.091736,1019.289062 766.296143,1032.233398 
	C752.027649,1038.432129 737.826050,1045.008301 723.074097,1049.818848 
	C700.450867,1057.195923 677.499451,1063.666138 654.448059,1069.590332 
	C642.192078,1072.740112 629.458252,1074.105713 616.891968,1075.948120 
	C607.989197,1077.253296 599.000488,1077.966797 590.067749,1079.084351 
	C589.310486,1079.179199 588.686157,1080.336426 588.000000,1081.000000 
z"/>
<path fill="#FED402" opacity="1.000000" stroke="none" 
	d="
M494.000000,0.999995 
	C518.020874,1.000000 542.041809,1.000000 566.467651,1.337413 
	C565.410889,3.454098 564.087585,5.371626 562.467590,6.992754 
	C495.041382,74.465431 427.579651,141.902603 360.188354,209.410110 
	C358.417175,211.184341 357.377228,213.688522 355.532776,215.925156 
	C333.419861,215.990448 311.769592,216.086517 290.121246,215.924820 
	C281.326172,215.859146 274.552521,219.411118 269.467834,226.307861 
	C260.048401,239.084061 250.828949,252.007690 241.413071,264.786560 
	C228.990753,281.645599 216.457733,298.423004 203.975464,315.237885 
	C191.700668,331.773224 179.430405,348.311951 167.157166,364.848480 
	C148.639877,389.798004 130.064056,414.704376 111.629639,439.714996 
	C103.120010,451.260284 92.570351,461.920868 93.291351,478.070435 
	C90.861000,479.717590 88.520592,481.056213 86.676643,482.893158 
	C59.920170,509.548187 33.243046,536.282898 6.492344,562.943726 
	C4.897822,564.532837 2.841443,565.658630 0.999998,567.000000 
	C1.000000,542.979126 1.000000,518.958191 1.343045,494.810333 
	C2.457936,490.250793 3.364474,485.836761 3.976074,481.382202 
	C5.728706,468.617035 6.774064,455.724426 9.163426,443.083374 
	C14.240499,416.222748 20.746199,389.652252 30.166656,363.963837 
	C36.776360,345.940002 44.020832,328.101990 51.946022,310.618042 
	C65.303223,281.150513 82.185287,253.696533 100.847969,227.249603 
	C115.997749,205.780823 132.605911,185.557144 150.920303,166.829971 
	C164.307022,153.141541 178.507416,140.178223 193.044937,127.707466 
	C205.387848,117.119286 218.460114,107.318703 231.690582,97.840988 
	C257.970947,79.014977 285.768433,62.684582 315.512543,49.909481 
	C332.565216,42.585381 349.601501,35.016933 367.186890,29.194719 
	C386.625702,22.758862 406.585571,17.792253 426.498535,12.921644 
	C447.713562,7.732566 469.255859,4.188520 491.121002,2.923856 
	C492.114441,2.866397 493.041840,1.667336 494.000000,0.999995 
z"/>
<path fill="#FCCB06" opacity="1.000000" stroke="none" 
	d="
M355.996246,215.852280 
	C357.377228,213.688522 358.417175,211.184341 360.188354,209.410110 
	C427.579651,141.902603 495.041382,74.465431 562.467590,6.992754 
	C564.087585,5.371626 565.410889,3.454098 566.936279,1.337413 
	C573.687622,1.000000 580.375305,1.000000 587.194214,1.349342 
	C588.172241,2.128312 588.982605,2.827366 589.871216,2.947454 
	C605.055664,4.999606 620.267212,6.856682 635.437683,9.005304 
	C658.259583,12.237622 680.465454,18.166134 702.408447,25.058363 
	C711.731812,27.986824 720.841980,31.594263 729.881226,35.188442 
	C729.059143,36.238312 728.448792,37.036812 727.744446,37.741264 
	C615.364136,150.134857 502.980804,262.525391 390.550323,374.868713 
	C389.082947,376.334930 387.012634,377.197754 384.819763,378.350830 
	C363.115112,378.124969 341.813721,377.676819 320.514038,377.747864 
	C310.170105,377.782379 306.987854,381.474854 306.922272,391.902802 
	C306.834290,405.891968 306.877045,419.882019 306.866302,433.871674 
	C306.862305,439.127594 306.865692,444.383545 306.865692,449.661407 
	C271.623718,449.661407 237.462402,449.661407 202.812073,449.661407 
	C206.622269,444.165649 210.009338,439.091949 213.585205,434.154999 
	C229.272186,412.497223 245.010147,390.876343 260.736511,369.247101 
	C278.611328,344.662994 296.503235,320.091278 314.369537,295.500977 
	C329.895294,274.132080 345.453857,252.786591 360.879181,231.345337 
	C367.156250,222.620239 365.790680,218.654861 355.996246,215.852280 
z"/>



<path fill="#FCCB06" opacity="1.000000" stroke="none" 
	d="
M40.886337,746.043396 
	C28.065033,715.421326 18.096537,683.904236 12.052140,651.249084 
	C8.914082,634.295593 6.669247,617.177307 3.978038,600.140198 
	C3.301178,595.855286 2.459363,591.596497 1.346680,587.662842 
	C1.000000,581.312378 1.000000,574.624695 0.999998,567.468506 
	C2.841443,565.658630 4.897822,564.532837 6.492344,562.943726 
	C33.243046,536.282898 59.920170,509.548187 86.676643,482.893158 
	C88.520592,481.056213 90.861000,479.717590 93.416611,478.524536 
	C93.870567,486.895325 93.871658,494.888733 93.887703,502.882172 
	C93.924362,521.150269 96.391121,523.639343 114.641190,523.646240 
	C161.771515,523.664062 208.901840,523.655701 256.032166,523.674438 
	C258.022217,523.675232 260.012207,523.842896 261.985901,524.298645 
	C260.827393,526.428589 259.956451,528.463623 258.504028,529.917847 
	C187.614288,600.896606 116.678780,671.829590 45.707432,742.726685 
	C44.350334,744.082458 42.504288,744.948730 40.886337,746.043396 
z"/>
<path fill="#F9A914" opacity="1.000000" stroke="none" 
	d="
M1020.868103,292.595154 
	C1026.141113,303.156738 1032.174805,313.415894 1036.520264,324.346222 
	C1044.274902,343.851898 1051.943726,363.485596 1057.912598,383.581329 
	C1064.027100,404.166992 1068.181885,425.343384 1072.931396,446.320770 
	C1074.400269,452.807892 1075.008545,459.489838 1076.063477,466.520874 
	C1074.499146,468.051056 1072.653442,468.914062 1071.298218,470.267853 
	C1007.228577,534.262085 943.196228,598.293640 879.206482,662.367737 
	C877.867798,663.708252 877.078918,665.597839 875.697266,667.745972 
	C869.044373,669.972229 865.886719,674.250061 865.779419,680.644165 
	C865.555847,693.964294 865.482300,707.287292 865.396729,720.609436 
	C865.345276,728.626648 865.387268,736.644409 865.387268,745.254517 
	C860.877930,741.888672 857.634216,738.945435 853.933105,736.786316 
	C819.896118,716.929626 773.259888,727.696960 750.812927,760.087708 
	C740.748169,774.611084 738.130798,791.187317 735.831177,807.994751 
	C733.199768,809.850769 730.394531,811.506409 727.974487,813.606018 
	C723.416138,817.560791 719.079651,821.771362 714.281738,825.504211 
	C713.964417,823.968262 713.927917,822.791931 714.081116,821.640808 
	C718.236389,790.430969 708.862122,764.257263 683.873901,744.804993 
	C662.887085,728.467773 638.411011,724.692749 612.496094,727.878052 
	C574.367859,732.564636 542.835144,761.441772 539.536133,801.891602 
	C536.678955,836.924072 554.349548,868.678528 586.419739,883.198242 
	C606.868408,892.456299 628.093201,893.796143 649.887329,889.593994 
	C648.549072,891.605103 647.503723,893.908630 645.830261,895.585022 
	C587.736084,953.780701 529.578552,1011.913208 471.459137,1070.083618 
	C469.841705,1071.702515 468.541504,1073.638184 467.026245,1075.770996 
	C453.774719,1073.985474 440.354004,1072.787720 427.457764,1069.520020 
	C404.407990,1063.679810 381.479034,1057.190186 358.877350,1049.814575 
	C343.832001,1044.904785 329.151550,1038.598755 314.835175,1031.806152 
	C298.137817,1023.883789 282.015045,1014.750366 265.392365,1005.662354 
	C266.514008,1003.535339 267.767151,1001.769592 269.275879,1000.259155 
	C306.361786,963.128723 343.478790,926.029358 380.572876,888.907104 
	C382.804382,886.673950 384.890900,884.295959 387.407257,882.015686 
	C410.838257,892.805664 434.678406,894.899475 459.153809,887.940125 
	C497.001282,877.178711 519.918091,846.708130 518.800476,807.308472 
	C518.505188,796.897095 514.965027,786.577637 513.076599,775.909668 
	C514.827637,773.900085 516.367371,772.147278 518.013489,770.500854 
	C635.573120,652.925598 753.141235,535.358826 870.708618,417.791321 
	C871.651001,416.848877 872.942383,416.063263 873.454102,414.926727 
	C874.246582,413.166718 874.506714,411.167053 875.398804,409.226379 
	C896.254028,412.906647 916.749939,414.073212 937.112671,408.992584 
	C956.300781,404.205017 971.783936,394.028168 980.916504,375.917999 
	C989.216736,359.458282 989.265503,342.414429 983.754822,325.132751 
	C986.076965,323.921204 988.295776,323.063110 989.862305,321.535919 
	C998.386841,313.225281 1006.701477,304.699524 1015.213501,296.375793 
	C1016.806946,294.817566 1018.968628,293.840454 1020.868103,292.595154 
z"/>
<path fill="#222221" opacity="1.000000" stroke="none" 
	d="
M735.901978,808.444336 
	C738.130798,791.187317 740.748169,774.611084 750.812927,760.087708 
	C773.259888,727.696960 819.896118,716.929626 853.933105,736.786316 
	C857.634216,738.945435 860.877930,741.888672 865.387268,745.254517 
	C865.387268,736.644409 865.345276,728.626648 865.396729,720.609436 
	C865.482300,707.287292 865.555847,693.964294 865.779419,680.644165 
	C865.886719,674.250061 869.044373,669.972229 875.679199,668.104065 
	C883.327576,667.945557 890.660645,667.811951 897.987000,667.976868 
	C906.142639,668.160339 910.299255,671.805115 911.445312,679.825623 
	C911.937134,683.267639 911.907959,686.801270 911.909607,690.293396 
	C911.937927,749.454407 911.942566,808.615417 911.931946,867.776428 
	C911.928467,887.004639 908.882202,890.078552 889.477722,889.868469 
	C884.694458,889.816772 879.764160,889.500610 875.180237,888.268555 
	C868.957214,886.595825 867.349304,883.748718 867.322632,877.424561 
	C867.316406,875.940063 867.321655,874.455566 867.321655,872.456970 
	C866.355530,872.895081 865.718933,873.003784 865.349609,873.377136 
	C850.516968,888.365540 831.855957,892.729736 811.760315,891.630188 
	C783.743591,890.097229 761.792786,877.546204 747.365479,853.101135 
	C741.407043,843.005493 738.453491,831.804932 737.260132,820.149963 
	C736.875488,816.393433 736.404419,812.645630 735.901978,808.444336 
M785.064819,795.822937 
	C785.039246,804.576843 783.730347,813.564697 785.274231,822.032410 
	C787.907898,836.477356 796.365479,847.374878 810.925781,851.820984 
	C825.978271,856.417358 840.438965,854.962952 852.352112,843.647461 
	C864.572754,832.039917 867.596680,817.147095 865.470398,801.026733 
	C863.933105,789.372009 858.850769,779.427551 849.179626,772.333496 
	C829.723389,758.061890 794.007385,762.675110 785.064819,795.822937 
z"/>
<path fill="#222221" opacity="1.000000" stroke="none" 
	d="
M650.190247,889.398193 
	C628.093201,893.796143 606.868408,892.456299 586.419739,883.198242 
	C554.349548,868.678528 536.678955,836.924072 539.536133,801.891602 
	C542.835144,761.441772 574.367859,732.564636 612.496094,727.878052 
	C638.411011,724.692749 662.887085,728.467773 683.873901,744.804993 
	C708.862122,764.257263 718.236389,790.430969 714.081116,821.640808 
	C713.927917,822.791931 713.964417,823.968262 713.942383,825.566650 
	C710.924744,836.995056 707.157593,847.663940 700.292175,856.981079 
	C687.748779,874.003662 670.884766,884.322510 650.190247,889.398193 
M630.323303,764.935730 
	C607.465393,763.267273 591.273193,777.403015 587.688660,795.934509 
	C586.144958,803.915222 586.001587,812.589355 587.310120,820.607727 
	C589.740173,835.498779 598.016846,846.975830 612.871887,851.677490 
	C628.582397,856.649902 643.638733,854.987366 655.854004,842.635071 
	C667.312927,831.047607 669.570618,816.496582 667.928406,800.998291 
	C665.849609,781.379150 650.227783,766.089233 630.323303,764.935730 
z"/>
<path fill="#222221" opacity="1.000000" stroke="none" 
	d="
M262.002228,523.932800 
	C260.012207,523.842896 258.022217,523.675232 256.032166,523.674438 
	C208.901840,523.655701 161.771515,523.664062 114.641190,523.646240 
	C96.391121,523.639343 93.924362,521.150269 93.887703,502.882172 
	C93.871658,494.888733 93.870567,486.895325 93.737434,478.447754 
	C92.570351,461.920868 103.120010,451.260284 111.629639,439.714996 
	C130.064056,414.704376 148.639877,389.798004 167.157166,364.848480 
	C179.430405,348.311951 191.700668,331.773224 203.975464,315.237885 
	C216.457733,298.423004 228.990753,281.645599 241.413071,264.786560 
	C250.828949,252.007690 260.048401,239.084061 269.467834,226.307861 
	C274.552521,219.411118 281.326172,215.859146 290.121246,215.924820 
	C311.769592,216.086517 333.419861,215.990448 355.532776,215.925156 
	C365.790680,218.654861 367.156250,222.620239 360.879181,231.345337 
	C345.453857,252.786591 329.895294,274.132080 314.369537,295.500977 
	C296.503235,320.091278 278.611328,344.662994 260.736511,369.247101 
	C245.010147,390.876343 229.272186,412.497223 213.585205,434.154999 
	C210.009338,439.091949 206.622269,444.165649 202.812073,449.661407 
	C237.462402,449.661407 271.623718,449.661407 306.865692,449.661407 
	C306.865692,444.383545 306.862305,439.127594 306.866302,433.871674 
	C306.877045,419.882019 306.834290,405.891968 306.922272,391.902802 
	C306.987854,381.474854 310.170105,377.782379 320.514038,377.747864 
	C341.813721,377.676819 363.115112,378.124969 385.055603,378.620117 
	C390.665833,382.010986 391.731445,386.934814 391.750214,392.276855 
	C391.791077,403.909363 391.769470,415.542114 391.771851,427.174744 
	C391.773407,434.607056 391.772156,442.039337 391.772156,449.997192 
	C394.162323,449.997192 395.948090,449.993927 397.733826,449.997742 
	C412.523621,450.029205 427.315430,449.925964 442.102448,450.146545 
	C450.668121,450.274261 454.674622,454.364166 455.045593,462.626892 
	C455.231598,466.769623 455.310120,470.917206 455.328308,475.451172 
	C455.185120,486.669922 455.216217,497.500793 455.098602,508.330109 
	C454.976288,519.595398 451.412872,523.299377 440.116333,523.539062 
	C429.789856,523.758118 419.455872,523.627808 409.125214,523.643799 
	C403.526001,523.652466 397.926788,523.645325 391.894348,523.645325 
	C391.894348,526.067993 391.897278,527.698669 391.893890,529.329407 
	C391.852600,549.157715 391.819702,568.986023 391.765137,588.814331 
	C391.730316,601.463989 388.096771,605.210083 375.466522,605.488586 
	C366.647888,605.683105 357.826385,605.748108 348.548676,605.757263 
	C337.781738,605.747559 327.472473,605.870422 317.162811,605.949463 
	C309.286865,606.009827 304.387360,601.519592 304.342926,594.003784 
	C304.234711,575.689758 304.226990,557.375122 304.184723,539.060730 
	C304.173309,534.122192 304.183014,529.183594 304.183014,523.932800 
	C289.543701,523.932800 275.772949,523.932800 262.002228,523.932800 
z"/>
<path fill="#FCC409" opacity="1.000000" stroke="none" 
	d="
M455.437256,475.062592 
	C455.310120,470.917206 455.231598,466.769623 455.045593,462.626892 
	C454.674622,454.364166 450.668121,450.274261 442.102448,450.146545 
	C427.315430,449.925964 412.523621,450.029205 397.733826,449.997742 
	C395.948090,449.993927 394.162323,449.997192 391.772156,449.997192 
	C391.772156,442.039337 391.773407,434.607056 391.771851,427.174744 
	C391.769470,415.542114 391.791077,403.909363 391.750214,392.276855 
	C391.731445,386.934814 390.665833,382.010986 385.459595,378.611481 
	C387.012634,377.197754 389.082947,376.334930 390.550323,374.868713 
	C502.980804,262.525391 615.364136,150.134857 727.744446,37.741264 
	C728.448792,37.036812 729.059143,36.238312 729.881226,35.188438 
	C737.876282,37.896088 745.853149,40.563866 753.497192,43.977139 
	C766.370117,49.725159 779.241760,55.545181 791.723389,62.080864 
	C804.334656,68.684441 816.471252,76.194427 828.666016,83.797226 
	C826.937561,85.764732 825.314941,87.198425 823.786438,88.726357 
	C779.950256,132.546600 736.097046,176.349960 692.353333,220.262344 
	C689.352478,223.274780 686.853271,224.588242 682.928040,222.072433 
	C680.598511,220.579361 677.861694,220.095718 675.583374,223.158203 
	C672.165344,222.006882 669.123901,220.844452 665.964600,219.362488 
	C663.059082,218.148514 660.271484,217.254074 657.075195,216.339035 
	C650.819336,215.175842 644.972168,214.033264 639.016602,212.707382 
	C638.294617,212.568436 637.681030,212.612778 636.638367,212.717224 
	C626.111145,212.732224 616.013000,212.687134 605.584351,212.444275 
	C600.139526,213.383698 595.025269,214.520889 589.550781,215.768250 
	C587.945984,216.023544 586.701416,216.168655 585.046204,216.218781 
	C581.759155,217.102036 578.882629,218.080292 575.745483,219.094284 
	C574.948669,219.532867 574.412598,219.935715 573.627930,220.541565 
	C572.782776,220.971710 572.186279,221.198868 571.198181,221.350464 
	C568.518005,222.443527 566.229492,223.612152 563.738281,224.937668 
	C563.213196,225.199875 562.890625,225.305191 562.192627,225.304718 
	C560.529419,226.082199 559.241760,226.965469 557.862671,227.998932 
	C557.771301,228.149124 557.441650,228.271469 557.066711,228.227783 
	C554.772339,229.406815 552.852844,230.629532 550.712646,232.076965 
	C549.396912,232.908005 548.301880,233.514343 546.846924,234.109985 
	C544.970825,235.356201 543.454773,236.613098 541.733948,238.128296 
	C539.429443,239.970184 537.329651,241.553757 534.878662,243.121002 
	C533.334167,244.374512 532.140930,245.644348 530.961060,246.951218 
	C530.974487,246.988235 530.909607,246.943604 530.586426,246.974243 
	C529.490967,247.943634 528.718628,248.882401 527.736755,250.074951 
	C526.250305,251.525864 524.973511,252.723022 523.411682,253.986023 
	C522.738586,254.681595 522.350586,255.311310 521.977417,255.970764 
	C521.992249,256.000488 521.939026,255.960556 521.593506,255.997955 
	C520.204102,257.423370 519.160217,258.811371 517.972595,260.474304 
	C516.878357,261.828979 515.927856,262.908722 514.647034,264.057892 
	C512.597534,266.840698 510.878235,269.554077 509.124146,272.462189 
	C509.089325,272.656921 508.821442,272.948090 508.479248,273.029816 
	C507.555939,274.265350 506.974792,275.419159 506.326599,276.817413 
	C506.089569,277.352875 505.919586,277.643890 505.439209,278.037201 
	C502.545532,283.279724 499.962189,288.420013 497.324890,293.871582 
	C497.003387,294.752441 496.735840,295.321991 496.187347,296.050964 
	C494.606537,298.839539 492.838470,301.344971 492.104584,304.123596 
	C490.587585,309.867157 489.621338,315.756134 488.436218,321.992981 
	C488.057251,324.560730 487.670715,326.720825 487.023529,329.102295 
	C486.674805,330.423615 486.586761,331.523529 486.491394,333.007751 
	C486.322235,334.928101 486.160339,336.464172 485.822357,338.160217 
	C485.734894,338.875122 485.823578,339.430084 485.950897,340.424438 
	C486.104156,350.078491 486.218750,359.293121 486.227509,368.865173 
	C486.510895,370.522430 486.900116,371.822327 487.426697,373.470215 
	C487.643768,374.559479 487.723450,375.300690 487.643707,376.188599 
	C487.705688,376.931671 487.927063,377.528046 488.278198,378.503662 
	C488.518677,379.943176 488.629364,381.003448 488.540405,382.360565 
	C491.336975,391.146301 494.333191,399.635162 497.552551,408.375854 
	C498.122864,409.432526 498.470001,410.237396 498.655701,411.227936 
	C498.926819,411.961121 499.359406,412.508606 499.921814,413.221497 
	C500.051575,413.386871 500.118530,413.801910 500.072906,414.170959 
	C501.211761,416.394257 502.396240,418.248505 503.800964,420.376617 
	C504.280304,421.295166 504.539459,421.939850 504.492432,422.814209 
	C503.511780,427.210785 502.641022,431.075714 499.307526,434.323792 
	C486.546631,446.757751 474.093018,459.506683 461.378296,471.988861 
	C459.857605,473.481659 457.439423,474.060272 455.437256,475.062592 
z"/>
<path fill="#FAB60F" opacity="1.000000" stroke="none" 
	d="
M387.044861,881.985352 
	C384.890900,884.295959 382.804382,886.673950 380.572876,888.907104 
	C343.478790,926.029358 306.361786,963.128723 269.275879,1000.259155 
	C267.767151,1001.769592 266.514008,1003.535339 265.068909,1005.507629 
	C247.098511,993.792480 228.827774,982.262085 211.431061,969.536804 
	C199.276337,960.645874 188.116653,950.343628 176.886047,940.255920 
	C167.385147,931.721802 158.195251,922.809753 149.290070,913.654236 
	C142.195435,906.360107 135.737869,898.446411 129.142151,890.162842 
	C140.692245,878.010864 152.088394,866.494629 163.511749,855.005493 
	C165.561020,852.944397 167.722397,850.994751 169.904968,849.457764 
	C170.017822,858.247437 169.876389,866.578918 170.144531,874.897095 
	C170.463989,884.806213 174.672028,889.193848 184.549362,889.740417 
	C191.021713,890.098572 197.549042,890.095459 204.019394,889.710510 
	C214.032196,889.114746 218.010864,884.834473 218.120071,874.792725 
	C218.275787,860.473450 218.205460,846.151733 218.225708,831.831055 
	C218.234100,825.890381 218.227097,819.949707 218.227097,813.875854 
	C220.414612,813.700134 221.542801,813.540161 222.672440,813.529236 
	C237.988098,813.380554 253.303757,813.224121 268.619812,813.128784 
	C279.776367,813.059326 290.936249,813.223083 302.089386,813.007874 
	C310.356506,812.848450 314.619537,808.637024 315.179352,800.379578 
	C315.448883,796.403870 315.268982,792.397095 315.276672,788.404358 
	C315.288910,782.048157 312.402008,777.640381 306.763702,775.127319 
	C308.871887,772.981262 310.579163,770.943909 312.451172,769.071228 
	C397.350800,684.146118 482.261353,599.231873 567.208374,514.354187 
	C568.566650,512.997009 570.392395,512.107666 572.024292,511.452789 
	C572.110779,512.508484 572.172913,513.111328 572.228455,514.045776 
	C565.827881,524.258545 559.433899,534.139709 552.707458,544.092041 
	C551.930603,545.125122 551.486206,546.086975 551.020508,547.025879 
	C550.999146,547.002808 551.051575,547.036499 550.712891,547.125610 
	C550.043701,548.006287 549.713196,548.797913 549.329773,549.907532 
	C548.449036,551.467468 547.621155,552.709290 546.489502,554.043152 
	C545.843933,554.851257 545.502136,555.567322 545.094727,556.545105 
	C544.683533,557.203552 544.337891,557.600281 543.652954,558.085449 
	C542.994873,558.970825 542.676025,559.767761 542.325073,560.824158 
	C542.098694,561.366821 541.904480,561.650024 541.410034,562.023987 
	C540.787292,562.826965 540.464783,563.539124 540.043945,564.567444 
	C538.601868,566.914795 537.258118,568.946045 535.601318,571.051819 
	C534.829590,572.023315 534.370789,572.920349 533.768066,574.117737 
	C532.678345,575.928528 531.732605,577.438965 530.480347,579.046021 
	C529.843994,579.870544 529.514282,580.598389 529.109131,581.628357 
	C528.312805,582.935120 527.591797,583.939758 526.569275,585.029175 
	C525.818909,585.988525 525.369995,586.863220 524.790039,588.025269 
	C524.332336,588.852051 524.005737,589.391418 523.389954,590.042480 
	C522.792297,590.872314 522.483704,591.590576 522.143494,592.493469 
	C522.111877,592.678101 521.873230,592.966919 521.529297,593.037109 
	C520.177490,594.832031 519.169739,596.556763 518.088867,598.628662 
	C516.957153,601.996704 515.898499,605.017578 514.683167,608.230835 
	C514.969177,608.970215 515.411926,609.517151 516.128052,610.213074 
	C517.262451,610.928467 518.123535,611.494812 519.132263,612.417786 
	C523.186646,613.180176 527.093323,613.585938 530.940369,614.339966 
	C529.615356,616.596985 528.632019,618.788696 527.043091,620.372925 
	C492.563507,654.748718 458.009369,689.049744 423.525269,723.421082 
	C422.691193,724.252441 422.493835,725.722595 421.591187,726.997620 
	C419.542694,727.370056 417.907501,727.676086 416.261505,727.904053 
	C355.129578,736.370300 329.153168,794.679688 350.509949,844.153137 
	C354.301697,852.936890 360.583710,861.066467 367.223175,868.068848 
	C372.667297,873.810486 380.352844,877.426880 387.044861,881.985352 
z"/>
<path fill="#FCC20A" opacity="1.000000" stroke="none" 
	d="
M169.832016,848.993652 
	C167.722397,850.994751 165.561020,852.944397 163.511749,855.005493 
	C152.088394,866.494629 140.692245,878.010864 129.119553,889.813599 
	C121.369286,880.928894 113.321594,872.089233 106.290451,862.503906 
	C85.237770,833.803772 66.801300,803.481323 51.688927,771.210754 
	C47.922550,763.168091 44.549133,754.941345 40.940712,746.421326 
	C42.504288,744.948730 44.350334,744.082458 45.707432,742.726685 
	C116.678780,671.829590 187.614288,600.896606 258.504028,529.917847 
	C259.956451,528.463623 260.827393,526.428589 261.985901,524.298645 
	C275.772949,523.932800 289.543701,523.932800 304.183014,523.932800 
	C304.183014,529.183594 304.173309,534.122192 304.184723,539.060730 
	C304.226990,557.375122 304.234711,575.689758 304.342926,594.003784 
	C304.387360,601.519592 309.286865,606.009827 317.162811,605.949463 
	C327.472473,605.870422 337.781738,605.747559 348.489441,606.104065 
	C347.563843,608.237793 346.389893,610.060303 344.893524,611.561462 
	C324.210907,632.310974 303.456848,652.989258 282.819489,673.783508 
	C281.171356,675.444214 280.254303,677.830505 278.534424,679.955994 
	C265.408539,680.043457 252.745682,680.053162 240.082840,680.065918 
	C222.088272,680.084045 204.092316,679.975281 186.099670,680.170837 
	C174.838974,680.293213 170.424042,684.872925 170.061890,696.048767 
	C169.986359,698.379395 170.002045,700.713501 170.001404,703.045959 
	C169.995636,724.206421 170.015198,745.366943 169.989029,766.527405 
	C169.955017,794.016174 169.885971,821.504883 169.832016,848.993652 
z"/>
<path fill="#F9B50F" opacity="1.000000" stroke="none" 
	d="
M421.999512,726.894836 
	C422.493835,725.722595 422.691193,724.252441 423.525269,723.421082 
	C458.009369,689.049744 492.563507,654.748718 527.043091,620.372925 
	C528.632019,618.788696 529.615356,616.596985 531.408936,614.329956 
	C557.079590,613.970764 582.222229,614.009521 607.364136,613.888489 
	C609.254517,613.879395 611.139404,612.729980 613.268799,612.001953 
	C613.858459,611.841797 614.206116,611.790222 614.891724,611.778198 
	C615.848328,611.264404 616.466919,610.711182 617.083557,610.119629 
	C617.081604,610.081238 617.158264,610.085144 617.470581,610.001160 
	C618.145325,609.199524 618.507812,608.481873 619.015259,607.464478 
	C620.541443,605.133179 621.922668,603.101685 623.633667,600.981567 
	C624.543945,599.758911 625.124329,598.624878 625.730713,597.339417 
	C625.756775,597.187927 626.000122,597.000000 626.335571,596.901794 
	C626.995483,596.009216 627.319946,595.214844 627.730957,594.110352 
	C628.656433,592.557373 629.495239,591.314453 630.627686,589.952759 
	C631.204773,589.091614 631.488281,588.349243 631.968933,587.340637 
	C635.176758,582.401062 638.187500,577.727783 641.525269,572.978760 
	C643.517700,570.180054 645.183167,567.457214 646.933105,564.540405 
	C647.017578,564.346436 647.350586,564.085571 647.657471,563.973022 
	C648.595459,562.493103 649.226624,561.125854 649.927979,559.423584 
	C653.036804,554.404419 656.075317,549.720154 659.445435,544.965088 
	C661.815918,541.535522 663.854736,538.176697 665.959229,534.612366 
	C666.025024,534.406921 666.312378,534.085083 666.649902,534.003052 
	C667.509888,532.748962 668.032288,531.576782 668.628174,530.073608 
	C674.515320,520.843140 680.328918,511.943787 686.485535,502.967712 
	C687.434448,501.754913 688.040405,500.618805 688.704346,499.229492 
	C688.929871,498.674896 689.097534,498.373474 689.561523,497.974762 
	C690.190247,497.171051 690.522522,496.464630 690.911743,495.562439 
	C690.968689,495.366638 691.247864,495.069489 691.543335,494.980103 
	C692.190918,494.201355 692.543091,493.511932 692.950806,492.616180 
	C693.006348,492.409821 693.271240,492.074432 693.566040,491.990265 
	C694.212830,491.223083 694.564941,490.540070 694.975647,489.644867 
	C695.034241,489.432648 695.292664,489.076141 695.589844,488.966614 
	C696.269287,487.919922 696.651489,486.982758 697.017456,486.022583 
	C697.001160,485.999634 697.048157,486.031067 697.386230,485.952759 
	C698.417114,484.475769 699.109924,483.077087 699.963257,481.384583 
	C701.479553,479.079041 702.835327,477.067291 704.520386,474.989441 
	C706.566040,471.947937 708.282288,468.972565 710.141663,465.704285 
	C711.216064,463.948853 712.147461,462.486298 713.400635,460.928345 
	C714.054443,460.073669 714.386475,459.314423 714.906128,458.282501 
	C724.453979,442.690582 733.814209,427.371307 743.500000,411.958130 
	C745.603882,407.252594 747.382263,402.640991 749.155823,397.677887 
	C749.556580,396.249542 749.962219,395.172699 750.602295,394.038940 
	C750.956238,393.333771 751.075745,392.685516 751.244263,391.677979 
	C751.632019,389.905640 751.970764,388.492615 752.619507,386.932343 
	C753.701172,382.873444 754.472839,378.961761 755.215088,374.677124 
	C755.339355,373.577484 755.492920,372.850769 755.919922,371.906067 
	C756.682312,359.445862 757.232849,347.205353 757.570984,334.958954 
	C757.607239,333.643768 756.407776,332.294434 755.672546,330.615570 
	C755.452637,328.829590 755.341675,327.389038 755.434692,325.659485 
	C754.581848,321.877228 753.525024,318.383881 752.343262,314.545074 
	C751.978760,313.000092 751.739258,311.800598 751.597046,310.260284 
	C751.187012,308.939453 750.679810,307.959412 750.050720,306.751740 
	C749.941528,306.352386 749.954224,306.180695 750.378906,306.004822 
	C753.659180,304.701996 757.205383,304.084869 759.296265,302.004791 
	C809.049561,252.507828 858.643860,202.851196 908.283752,153.240189 
	C909.803528,151.721375 911.499817,150.379181 913.113831,148.954636 
	C924.701355,161.089493 936.538635,172.998322 947.794373,185.433517 
	C956.199707,194.719772 963.854126,204.685684 971.506226,214.831390 
	C970.509216,215.224014 969.849121,215.056274 969.188721,215.055466 
	C934.542603,215.013184 899.896362,214.950790 865.250366,214.995041 
	C860.452209,215.001175 857.414734,217.518951 856.945374,222.519226 
	C854.038086,253.489471 851.082214,284.455505 848.320984,315.438812 
	C847.815796,321.107086 850.858154,323.974670 856.842041,324.026550 
	C870.167114,324.142120 883.516846,323.611298 896.812073,324.257507 
	C906.539734,324.730316 916.291138,326.181427 925.857361,328.077576 
	C934.637817,329.817963 941.117188,337.621094 942.085693,346.272278 
	C943.182312,356.067657 939.757507,363.813629 931.263733,369.205719 
	C924.077332,373.767853 915.983215,374.786774 907.840515,375.062225 
	C890.143372,375.660919 873.584412,371.254425 858.194519,362.549164 
	C854.180725,360.278778 850.170776,359.744141 847.710022,364.014191 
	C843.494568,371.329132 839.698975,378.924133 836.285950,386.648468 
	C834.408142,390.898163 836.971680,395.224121 840.493713,396.683990 
	C851.791138,401.366760 863.464355,405.143005 874.992554,409.268982 
	C874.506714,411.167053 874.246582,413.166718 873.454102,414.926727 
	C872.942383,416.063263 871.651001,416.848877 870.708618,417.791321 
	C753.141235,535.358826 635.573120,652.925598 518.013489,770.500854 
	C516.367371,772.147278 514.827637,773.900085 512.826172,775.661682 
	C501.721527,752.216858 483.355225,737.722412 458.966827,730.424500 
	C446.903748,726.814880 434.456970,726.665283 421.999512,726.894836 
M780.178284,411.495697 
	C777.190918,422.446808 774.125000,433.377411 771.260010,444.360443 
	C770.299744,448.041748 773.148682,451.562592 777.078247,451.821869 
	C780.564148,452.051880 784.069214,452.131744 787.562744,452.078217 
	C794.971863,451.964752 797.875061,449.797577 800.631775,442.784698 
	C804.877625,431.983643 809.177368,421.203796 813.460510,410.417419 
	C817.067810,401.333069 820.626038,392.250153 820.032959,382.176086 
	C819.339050,370.387421 810.595886,360.414276 798.912720,358.193115 
	C787.060181,355.939728 775.042053,361.730011 770.030151,372.108521 
	C764.163940,384.256256 767.492920,398.627441 778.054260,407.270905 
	C779.024902,408.065277 779.458679,409.515533 780.178284,411.495697 
z"/>
<path fill="#FBBE0B" opacity="1.000000" stroke="none" 
	d="
M912.975098,148.642944 
	C911.499817,150.379181 909.803528,151.721375 908.283752,153.240189 
	C858.643860,202.851196 809.049561,252.507828 759.296265,302.004791 
	C757.205383,304.084869 753.659180,304.701996 750.183838,305.801086 
	C749.476868,305.049957 749.376953,304.498352 749.452393,303.671326 
	C746.554565,296.892365 743.481323,290.388824 740.238770,283.655304 
	C739.935974,282.884430 739.802429,282.343506 739.704834,281.433289 
	C739.180481,280.370178 738.620239,279.676300 737.781738,278.779968 
	C732.959106,272.171509 728.414856,265.765533 723.835144,259.019897 
	C723.160583,258.135406 722.521362,257.590607 721.589294,256.887573 
	C712.484314,249.133484 703.971008,241.147720 694.750366,234.085327 
	C689.042664,229.713623 682.260071,226.745346 675.959961,223.147095 
	C677.861694,220.095718 680.598511,220.579361 682.928040,222.072433 
	C686.853271,224.588242 689.352478,223.274780 692.353333,220.262344 
	C736.097046,176.349960 779.950256,132.546600 823.786438,88.726357 
	C825.314941,87.198425 826.937561,85.764732 828.811768,84.119720 
	C838.374451,90.101303 847.965576,95.820129 856.833374,102.499397 
	C870.347229,112.678238 883.421021,123.447273 896.557739,134.118286 
	C902.145386,138.657181 907.419678,143.581894 912.975098,148.642944 
z"/>
<path fill="#232221" opacity="1.000000" stroke="none" 
	d="
M875.398804,409.226379 
	C863.464355,405.143005 851.791138,401.366760 840.493713,396.683990 
	C836.971680,395.224121 834.408142,390.898163 836.285950,386.648468 
	C839.698975,378.924133 843.494568,371.329132 847.710022,364.014191 
	C850.170776,359.744141 854.180725,360.278778 858.194519,362.549164 
	C873.584412,371.254425 890.143372,375.660919 907.840515,375.062225 
	C915.983215,374.786774 924.077332,373.767853 931.263733,369.205719 
	C939.757507,363.813629 943.182312,356.067657 942.085693,346.272278 
	C941.117188,337.621094 934.637817,329.817963 925.857361,328.077576 
	C916.291138,326.181427 906.539734,324.730316 896.812073,324.257507 
	C883.516846,323.611298 870.167114,324.142120 856.842041,324.026550 
	C850.858154,323.974670 847.815796,321.107086 848.320984,315.438812 
	C851.082214,284.455505 854.038086,253.489471 856.945374,222.519226 
	C857.414734,217.518951 860.452209,215.001175 865.250366,214.995041 
	C899.896362,214.950790 934.542603,215.013184 969.188721,215.055466 
	C969.849121,215.056274 970.509216,215.224014 971.622498,215.159424 
	C972.075500,215.005005 971.983215,214.997696 971.888550,215.265762 
	C972.186584,215.683380 972.579224,215.832947 972.971924,215.982513 
	C974.001526,217.687912 975.031128,219.393295 975.954285,221.946320 
	C975.843689,228.286713 975.971191,233.783356 975.807861,239.271347 
	C975.474915,250.459259 972.838623,250.375992 964.882690,250.417755 
	C946.074829,250.516510 927.266418,250.498871 908.458191,250.525360 
	C904.009277,250.531616 899.560364,250.526276 894.763855,250.526276 
	C893.637756,263.473206 892.593445,275.479797 891.520996,287.809418 
	C893.379456,287.894531 894.516541,287.988678 895.653870,287.992340 
	C910.882935,288.041412 926.230286,287.692352 940.943298,292.199371 
	C948.997498,294.666626 956.877869,298.138123 964.285339,302.169586 
	C973.504639,307.187103 978.846130,315.963898 983.350403,325.177399 
	C989.265503,342.414429 989.216736,359.458282 980.916504,375.917999 
	C971.783936,394.028168 956.300781,404.205017 937.112671,408.992584 
	C916.749939,414.073212 896.254028,412.906647 875.398804,409.226379 
z"/>
<path fill="#FAB210" opacity="1.000000" stroke="none" 
	d="
M983.754822,325.132751 
	C978.846130,315.963898 973.504639,307.187103 964.285339,302.169586 
	C956.877869,298.138123 948.997498,294.666626 940.943298,292.199371 
	C926.230286,287.692352 910.882935,288.041412 895.653870,287.992340 
	C894.516541,287.988678 893.379456,287.894531 891.520996,287.809418 
	C892.593445,275.479797 893.637756,263.473206 894.763855,250.526276 
	C899.560364,250.526276 904.009277,250.531616 908.458191,250.525360 
	C927.266418,250.498871 946.074829,250.516510 964.882690,250.417755 
	C972.838623,250.375992 975.474915,250.459259 975.807861,239.271347 
	C975.971191,233.783356 975.843689,228.286713 975.913330,222.319000 
	C978.635498,224.786850 981.816772,227.406250 983.862732,230.725449 
	C996.360596,251.000244 1008.600708,271.433868 1020.897461,292.204865 
	C1018.968628,293.840454 1016.806946,294.817566 1015.213501,296.375793 
	C1006.701477,304.699524 998.386841,313.225281 989.862305,321.535919 
	C988.295776,323.063110 986.076965,323.921204 983.754822,325.132751 
z"/>
<path fill="#F9B50F" opacity="1.000000" stroke="none" 
	d="
M972.937622,215.711548 
	C972.579224,215.832947 972.186584,215.683380 971.892395,215.219635 
	C972.295044,215.083832 972.599182,215.262222 972.937622,215.711548 
z"/>
<path fill="#222221" opacity="1.000000" stroke="none" 
	d="
M421.591248,726.997620 
	C434.456970,726.665283 446.903748,726.814880 458.966827,730.424500 
	C483.355225,737.722412 501.721527,752.216858 512.664429,775.968018 
	C514.965027,786.577637 518.505188,796.897095 518.800476,807.308472 
	C519.918091,846.708130 497.001282,877.178711 459.153809,887.940125 
	C434.678406,894.899475 410.838257,892.805664 387.407227,882.015625 
	C380.352844,877.426880 372.667297,873.810486 367.223175,868.068848 
	C360.583710,861.066467 354.301697,852.936890 350.509949,844.153137 
	C329.153168,794.679688 355.129578,736.370300 416.261505,727.904053 
	C417.907501,727.676086 419.542694,727.370056 421.591248,726.997620 
M472.048401,815.484192 
	C471.689728,809.036377 472.195892,802.394592 470.801331,796.179199 
	C467.367737,780.876404 458.024994,770.040894 442.616516,766.238220 
	C426.797241,762.334290 411.941132,765.023376 400.705505,777.987488 
	C388.985321,791.510681 387.802032,807.520020 392.036285,824.055908 
	C395.502350,837.591797 403.677460,847.587463 417.396271,851.908875 
	C444.420532,860.421509 468.455627,844.669617 472.048401,815.484192 
z"/>
<path fill="#F7A017" opacity="1.000000" stroke="none" 
	d="
M785.147461,795.413818 
	C794.007385,762.675110 829.723389,758.061890 849.179626,772.333496 
	C858.850769,779.427551 863.933105,789.372009 865.470398,801.026733 
	C867.596680,817.147095 864.572754,832.039917 852.352112,843.647461 
	C840.438965,854.962952 825.978271,856.417358 810.925781,851.820984 
	C796.365479,847.374878 787.907898,836.477356 785.274231,822.032410 
	C783.730347,813.564697 785.039246,804.576843 785.147461,795.413818 
z"/>
<path fill="#F8A714" opacity="1.000000" stroke="none" 
	d="
M630.789062,764.947876 
	C650.227783,766.089233 665.849609,781.379150 667.928406,800.998291 
	C669.570618,816.496582 667.312927,831.047607 655.854004,842.635071 
	C643.638733,854.987366 628.582397,856.649902 612.871887,851.677490 
	C598.016846,846.975830 589.740173,835.498779 587.310120,820.607727 
	C586.001587,812.589355 586.144958,803.915222 587.688660,795.934509 
	C591.273193,777.403015 607.465393,763.267273 630.789062,764.947876 
z"/>
<path fill="#FABB0C" opacity="1.000000" stroke="none" 
	d="
M278.997467,679.879517 
	C280.254303,677.830505 281.171356,675.444214 282.819489,673.783508 
	C303.456848,652.989258 324.210907,632.310974 344.893524,611.561462 
	C346.389893,610.060303 347.563843,608.237793 348.946930,606.217834 
	C357.826385,605.748108 366.647888,605.683105 375.466522,605.488586 
	C388.096771,605.210083 391.730316,601.463989 391.765137,588.814331 
	C391.819702,568.986023 391.852600,549.157715 391.893890,529.329407 
	C391.897278,527.698669 391.894348,526.067993 391.894348,523.645325 
	C397.926788,523.645325 403.526001,523.652466 409.125214,523.643799 
	C419.455872,523.627808 429.789856,523.758118 440.116333,523.539062 
	C451.412872,523.299377 454.976288,519.595398 455.098602,508.330109 
	C455.216217,497.500793 455.185120,486.669922 455.328308,475.451172 
	C457.439423,474.060272 459.857605,473.481659 461.378296,471.988861 
	C474.093018,459.506683 486.546631,446.757751 499.307526,434.323792 
	C502.641022,431.075714 503.511780,427.210785 504.749084,422.900970 
	C505.608032,423.390320 505.904175,424.022583 506.179688,424.985474 
	C506.727142,425.897430 507.295197,426.478790 508.101562,427.243896 
	C508.628052,428.167480 508.916199,428.907349 509.191284,430.001770 
	C510.415771,431.580109 511.653290,432.803955 513.008057,434.172333 
	C513.125366,434.316895 513.183350,434.684631 513.170532,435.016113 
	C513.972656,436.261139 514.787598,437.174652 515.874390,438.302795 
	C535.716919,462.145691 560.243042,478.178040 590.847412,486.002472 
	C584.869690,494.922729 579.473511,502.975250 573.731140,511.017883 
	C572.923340,511.005310 572.461670,511.002655 572.000000,511.000000 
	C570.392395,512.107666 568.566650,512.997009 567.208374,514.354187 
	C482.261353,599.231873 397.350800,684.146118 312.451172,769.071228 
	C310.579163,770.943909 308.871887,772.981262 306.333679,775.096558 
	C303.254639,775.134216 300.929840,774.919067 298.604706,774.915161 
	C277.967224,774.880615 257.329651,774.883057 236.692108,774.875732 
	C230.785141,774.873596 224.878174,774.875366 218.723694,774.875366 
	C218.723694,755.566040 218.723694,737.514099 218.723694,718.997070 
	C221.004944,718.997070 222.798355,718.998291 224.591782,718.996887 
	C251.886414,718.975098 279.181091,718.973267 306.475677,718.923828 
	C325.360504,718.889648 328.201050,716.008728 328.085175,697.238586 
	C328.006470,684.496460 323.848389,680.304138 310.937531,680.132141 
	C300.291626,679.990295 289.644196,679.959534 278.997467,679.879517 
z"/>
<path fill="#232221" opacity="1.000000" stroke="none" 
	d="
M513.183350,434.684631 
	C513.183350,434.684631 513.125366,434.316895 512.992676,433.841583 
	C511.641388,432.126617 510.422852,430.886932 509.204346,429.647247 
	C508.916199,428.907349 508.628052,428.167480 508.058807,426.941742 
	C507.251892,425.855560 506.726105,425.255219 506.200287,424.654877 
	C505.904175,424.022583 505.608032,423.390320 505.055237,422.671265 
	C504.539459,421.939850 504.280304,421.295166 503.801117,420.035522 
	C502.426910,417.547668 501.272705,415.674805 500.118530,413.801910 
	C500.118530,413.801910 500.051575,413.386871 499.943481,412.923279 
	C499.495972,411.987183 499.156555,411.514740 498.817139,411.042267 
	C498.470001,410.237396 498.122864,409.432526 497.594971,408.011536 
	C494.522858,398.951508 491.631470,390.507629 488.740082,382.063721 
	C488.629364,381.003448 488.518677,379.943176 488.372742,378.236420 
	C488.159393,377.073914 487.981262,376.557922 487.803131,376.041901 
	C487.723450,375.300690 487.643768,374.559479 487.524353,373.128021 
	C487.100861,371.127777 486.717102,369.817780 486.333374,368.507782 
	C486.218750,359.293121 486.104156,350.078491 486.082947,340.254974 
	C486.117065,339.097504 486.057770,338.548889 485.998474,338.000275 
	C486.160339,336.464172 486.322235,334.928101 486.728821,332.767426 
	C487.077057,331.055542 487.180603,329.968262 487.284180,328.880951 
	C487.670715,326.720825 488.057251,324.560730 488.666626,321.712341 
	C491.415710,312.646545 493.941986,304.269073 496.468292,295.891571 
	C496.735840,295.321991 497.003387,294.752441 497.614014,293.678741 
	C500.554626,288.094727 503.152100,283.014832 505.749573,277.934937 
	C505.919586,277.643890 506.089569,277.352875 506.615234,276.667175 
	C507.587738,275.164368 508.204590,274.056213 508.821442,272.948090 
	C508.821442,272.948090 509.089325,272.656921 509.420135,272.306824 
	C511.493042,269.300629 513.235168,266.644531 514.977295,263.988464 
	C515.927856,262.908722 516.878357,261.828979 518.268311,260.339294 
	C519.784851,258.606415 520.861938,257.283478 521.939026,255.960556 
	C521.939026,255.960556 521.992249,256.000488 522.272217,255.920166 
	C522.933655,255.199951 523.315186,254.560089 523.696716,253.920197 
	C524.973511,252.723022 526.250305,251.525864 528.048096,250.043945 
	C529.349182,248.820633 530.129395,247.882111 530.909607,246.943604 
	C530.909607,246.943604 530.974487,246.988235 531.284058,246.906525 
	C532.805664,245.595642 534.017761,244.366455 535.229858,243.137299 
	C537.329651,241.553757 539.429443,239.970184 542.064331,238.072693 
	C544.135315,236.546097 545.671082,235.333405 547.206848,234.120697 
	C548.301880,233.514343 549.396912,232.908005 551.059265,232.045349 
	C553.564941,230.616516 555.503296,229.443985 557.441650,228.271454 
	C557.441650,228.271469 557.771301,228.149124 558.196045,227.979889 
	C559.936584,227.010605 561.252319,226.210541 562.568115,225.410492 
	C562.890625,225.305191 563.213196,225.199875 564.097351,224.946686 
	C566.969238,223.674545 569.279541,222.550278 571.589783,221.426025 
	C572.186279,221.198868 572.782776,220.971710 573.899170,220.602905 
	C574.943420,220.297043 575.467773,220.132828 576.374390,219.975327 
	C579.656677,218.759277 582.556702,217.536530 585.456787,216.313782 
	C586.701416,216.168655 587.945984,216.023544 589.957825,215.837158 
	C595.788330,214.744614 600.851562,213.693329 605.914856,212.642059 
	C616.013000,212.687134 626.111145,212.732224 636.850708,212.912247 
	C638.036377,212.995010 638.580627,212.942856 639.124939,212.890686 
	C644.972168,214.033264 650.819336,215.175842 657.292786,216.613098 
	C660.640198,217.832504 663.361328,218.757263 666.082520,219.682007 
	C669.123901,220.844452 672.165344,222.006882 675.583374,223.158203 
	C682.260071,226.745346 689.042664,229.713623 694.750366,234.085327 
	C703.971008,241.147720 712.484314,249.133484 721.633545,257.213196 
	C722.604004,258.251251 723.237305,258.805420 723.870544,259.359589 
	C728.414856,265.765533 732.959106,272.171509 737.799194,279.120117 
	C738.619690,280.376068 739.144348,281.089325 739.668945,281.802582 
	C739.802429,282.343506 739.935974,282.884430 740.242554,284.011230 
	C743.369446,291.046967 746.323242,297.496857 749.276978,303.946747 
	C749.376953,304.498352 749.476868,305.049957 749.771912,305.805298 
	C749.954224,306.180695 749.941528,306.352386 750.012451,307.084290 
	C750.563965,308.630035 751.031860,309.615570 751.499817,310.601105 
	C751.739258,311.800598 751.978760,313.000092 752.253052,314.936646 
	C753.268799,319.098602 754.249817,322.523529 755.230774,325.948456 
	C755.341675,327.389038 755.452637,328.829590 755.543945,330.950562 
	C755.871948,336.569855 756.531555,341.510895 756.498169,346.447235 
	C756.440308,355.007690 755.953430,363.565277 755.646545,372.124054 
	C755.492920,372.850769 755.339355,373.577484 754.989807,374.967163 
	C753.965698,379.446625 753.137634,383.263092 752.309509,387.079559 
	C751.970764,388.492615 751.632019,389.905640 751.023926,391.871338 
	C750.625610,392.981262 750.496765,393.538574 750.367859,394.095856 
	C749.962219,395.172699 749.556580,396.249542 748.922241,397.936096 
	C746.853760,403.047913 745.014099,407.549988 743.174438,412.052063 
	C733.814209,427.371307 724.453979,442.690582 714.623779,458.428375 
	C713.795471,459.572510 713.437134,460.298126 713.078796,461.023773 
	C712.147461,462.486298 711.216064,463.948853 709.829224,465.827179 
	C707.646118,469.180481 705.918579,472.118011 704.191101,475.055542 
	C702.835327,477.067291 701.479553,479.079041 699.670288,481.534668 
	C698.493958,483.329407 697.771057,484.680237 697.048157,486.031067 
	C697.048157,486.031067 697.001160,485.999634 696.710144,486.119751 
	C696.043640,487.185303 695.668152,488.130707 695.292664,489.076141 
	C695.292664,489.076141 695.034241,489.432648 694.686340,489.740662 
	C693.982727,490.723938 693.626953,491.399170 693.271240,492.074402 
	C693.271240,492.074432 693.006348,492.409821 692.666870,492.720642 
	C691.967529,493.710815 691.607666,494.390137 691.247864,495.069489 
	C691.247864,495.069489 690.968689,495.366638 690.619141,495.664734 
	C689.934814,496.665894 689.599976,497.368988 689.265137,498.072052 
	C689.097534,498.373474 688.929871,498.674896 688.414307,499.381989 
	C687.425110,500.873230 686.783875,501.958801 686.142578,503.044373 
	C680.328918,511.943787 674.515320,520.843140 668.366089,530.259155 
	C667.457825,531.878906 666.885132,532.981995 666.312378,534.085083 
	C666.312378,534.085083 666.025024,534.406921 665.644043,534.732056 
	C663.213257,538.383362 661.163513,541.709656 659.113770,545.035889 
	C656.075317,549.720154 653.036804,554.404419 649.642700,559.579102 
	C648.641663,561.408203 647.996155,562.746887 647.350586,564.085571 
	C647.350586,564.085571 647.017578,564.346436 646.604614,564.635132 
	C644.527161,567.634033 642.862671,570.344238 641.198181,573.054504 
	C638.187500,577.727783 635.176758,582.401062 631.692627,587.481323 
	C630.924194,588.616089 630.629150,589.343811 630.334106,590.071533 
	C629.495239,591.314453 628.656433,592.557373 627.431274,594.248413 
	C626.696655,595.464355 626.348389,596.232178 626.000122,597.000000 
	C626.000122,597.000000 625.756775,597.187927 625.417603,597.452637 
	C624.486877,598.834961 623.895325,599.952576 623.303772,601.070190 
	C621.922668,603.101685 620.541443,605.133179 618.729980,607.577393 
	C617.919250,608.688416 617.538757,609.386780 617.158203,610.085144 
	C617.158264,610.085144 617.081604,610.081238 616.776489,610.167114 
	C615.832214,610.748169 615.192993,611.243408 614.553772,611.738647 
	C614.206116,611.790222 613.858459,611.841797 612.807251,611.902954 
	C581.063965,611.962158 550.024292,612.011719 518.984558,612.061279 
	C518.123535,611.494812 517.262451,610.928467 516.110229,609.917725 
	C515.492615,608.995117 515.166199,608.516724 514.839844,608.038391 
	C515.898499,605.017578 516.957153,601.996704 518.384644,598.479370 
	C519.793457,596.310913 520.833374,594.638916 521.873230,592.966919 
	C521.873230,592.966919 522.111877,592.678101 522.436768,592.383545 
	C523.067505,591.369629 523.373291,590.650269 523.679077,589.930847 
	C524.005737,589.391418 524.332336,588.852051 525.089478,587.954712 
	C525.970276,586.712708 526.420532,585.828552 526.870789,584.944397 
	C527.591797,583.939758 528.312805,582.935120 529.390747,581.500977 
	C530.094055,580.364075 530.440430,579.656738 530.786865,578.949402 
	C531.732605,577.438965 532.678345,575.928528 534.068481,574.034912 
	C534.980042,572.760254 535.447144,571.868774 535.914307,570.977295 
	C537.258118,568.946045 538.601868,566.914795 540.319580,564.447632 
	C541.032471,563.318909 541.371399,562.626099 541.710266,561.933228 
	C541.904480,561.650024 542.098694,561.366821 542.598145,560.658325 
	C543.266296,559.487610 543.629272,558.742310 543.992249,557.997009 
	C544.337891,557.600281 544.683533,557.203552 545.387573,556.437317 
	C546.095032,555.362244 546.444153,554.656677 546.793274,553.951111 
	C547.621155,552.709290 548.449036,551.467468 549.614136,549.754150 
	C550.318176,548.533936 550.684875,547.785217 551.051575,547.036499 
	C551.051575,547.036499 550.999146,547.002808 551.318481,546.903687 
	C552.105164,545.876709 552.572510,544.948792 553.039917,544.020874 
	C559.433899,534.139709 565.827881,524.258545 572.544312,513.896729 
	C573.270264,512.619934 573.673767,511.823853 574.077271,511.027771 
	C579.473511,502.975250 584.869690,494.922729 590.847412,486.002472 
	C560.243042,478.178040 535.716919,462.145691 515.881470,437.985962 
	C514.805542,436.531250 513.994446,435.607941 513.183350,434.684631 
M669.706421,357.065704 
	C671.863770,347.926575 671.262146,339.018127 668.444458,330.010803 
	C658.885254,299.452393 623.312805,284.861206 595.402832,302.522369 
	C572.241638,317.178528 564.980408,347.651672 578.540955,371.571472 
	C591.381042,394.220490 620.779846,403.089111 643.584473,391.052643 
	C657.138000,383.898926 665.613342,372.640503 669.706421,357.065704 
z"/>
<path fill="#CEA40D" opacity="1.000000" stroke="none" 
	d="
M488.540405,382.360565 
	C491.631470,390.507629 494.522858,398.951508 497.371826,407.759735 
	C494.333191,399.635162 491.336975,391.146301 488.540405,382.360565 
z"/>
<path fill="#CEA40D" opacity="1.000000" stroke="none" 
	d="
M496.187347,296.050964 
	C493.941986,304.269073 491.415710,312.646545 488.659027,321.304688 
	C489.621338,315.756134 490.587585,309.867157 492.104584,304.123596 
	C492.838470,301.344971 494.606537,298.839539 496.187347,296.050964 
z"/>
<path fill="#CEA40D" opacity="1.000000" stroke="none" 
	d="
M505.439209,278.037201 
	C503.152100,283.014832 500.554626,288.094727 497.667999,293.367432 
	C499.962189,288.420013 502.545532,283.279724 505.439209,278.037201 
z"/>
<path fill="#CAA00E" opacity="1.000000" stroke="none" 
	d="
M605.584351,212.444290 
	C600.851562,213.693329 595.788330,214.744614 590.317993,215.726990 
	C595.025269,214.520889 600.139526,213.383698 605.584351,212.444290 
z"/>
<path fill="#CEA40D" opacity="1.000000" stroke="none" 
	d="
M514.647034,264.057892 
	C513.235168,266.644531 511.493042,269.300629 509.454956,272.112091 
	C510.878235,269.554077 512.597534,266.840698 514.647034,264.057892 
z"/>
<path fill="#CAA00E" opacity="1.000000" stroke="none" 
	d="
M585.046204,216.218781 
	C582.556702,217.536530 579.656677,218.759277 576.377441,219.747803 
	C575.998230,219.513580 576.006165,219.058548 576.006165,219.058548 
	C578.882629,218.080292 581.759155,217.102036 585.046204,216.218781 
z"/>
<path fill="#CCA00E" opacity="1.000000" stroke="none" 
	d="
M665.964600,219.362488 
	C663.361328,218.757263 660.640198,217.832504 657.701416,216.633698 
	C660.271484,217.254074 663.059082,218.148514 665.964600,219.362488 
z"/>
<path fill="#CEA40D" opacity="1.000000" stroke="none" 
	d="
M500.072906,414.170959 
	C501.272705,415.674805 502.426910,417.547668 503.580933,419.761658 
	C502.396240,418.248505 501.211761,416.394257 500.072906,414.170959 
z"/>
<path fill="#CEA40D" opacity="1.000000" stroke="none" 
	d="
M571.198181,221.350464 
	C569.279541,222.550278 566.969238,223.674545 564.299927,224.789795 
	C566.229492,223.612152 568.518005,222.443527 571.198181,221.350464 
z"/>
<path fill="#CEA40D" opacity="1.000000" stroke="none" 
	d="
M557.066711,228.227783 
	C555.503296,229.443985 553.564941,230.616516 551.280029,231.820648 
	C552.852844,230.629532 554.772339,229.406815 557.066711,228.227783 
z"/>
<path fill="#CEA40D" opacity="1.000000" stroke="none" 
	d="
M546.846924,234.110016 
	C545.671082,235.333405 544.135315,236.546097 542.269165,237.814392 
	C543.454773,236.613098 544.970825,235.356201 546.846924,234.110016 
z"/>
<path fill="#CEA40D" opacity="1.000000" stroke="none" 
	d="
M534.878662,243.120972 
	C534.017761,244.366455 532.805664,245.595642 531.270630,246.869507 
	C532.140930,245.644348 533.334167,244.374512 534.878662,243.120972 
z"/>
<path fill="#CEA40D" opacity="1.000000" stroke="none" 
	d="
M521.593506,255.997955 
	C520.861938,257.283478 519.784851,258.606415 518.412048,260.064362 
	C519.160217,258.811371 520.204102,257.423370 521.593506,255.997955 
z"/>
<path fill="#CEA40D" opacity="1.000000" stroke="none" 
	d="
M562.192627,225.304703 
	C561.252319,226.210541 559.936584,227.010605 558.287415,227.829712 
	C559.241760,226.965469 560.529419,226.082199 562.192627,225.304703 
z"/>
<path fill="#CEA40D" opacity="1.000000" stroke="none" 
	d="
M486.227478,368.865173 
	C486.717102,369.817780 487.100861,371.127777 487.386963,372.779968 
	C486.900116,371.822327 486.510895,370.522430 486.227478,368.865173 
z"/>
<path fill="#CEA40D" opacity="1.000000" stroke="none" 
	d="
M508.479248,273.029816 
	C508.204590,274.056213 507.587738,275.164368 506.682281,276.422729 
	C506.974792,275.419159 507.555939,274.265350 508.479248,273.029816 
z"/>
<path fill="#CEA40D" opacity="1.000000" stroke="none" 
	d="
M530.586426,246.974228 
	C530.129395,247.882111 529.349182,248.820633 528.257690,249.790161 
	C528.718628,248.882401 529.490967,247.943634 530.586426,246.974228 
z"/>
<path fill="#CEA40D" opacity="1.000000" stroke="none" 
	d="
M487.023499,329.102295 
	C487.180603,329.968262 487.077057,331.055542 486.736115,332.383179 
	C486.586761,331.523529 486.674805,330.423615 487.023499,329.102295 
z"/>
<path fill="#CEA40D" opacity="1.000000" stroke="none" 
	d="
M575.745483,219.094284 
	C576.006165,219.058548 575.998230,219.513580 575.995178,219.741104 
	C575.467773,220.132828 574.943420,220.297043 574.147827,220.399902 
	C574.412598,219.935715 574.948669,219.532867 575.745483,219.094284 
z"/>
<path fill="#CAA00E" opacity="1.000000" stroke="none" 
	d="
M639.016602,212.707382 
	C638.580627,212.942856 638.036377,212.995010 637.279785,212.852142 
	C637.681030,212.612778 638.294617,212.568436 639.016602,212.707382 
z"/>
<path fill="#CEA40D" opacity="1.000000" stroke="none" 
	d="
M487.643707,376.188599 
	C487.981262,376.557922 488.159393,377.073914 488.243011,377.857178 
	C487.927063,377.528046 487.705688,376.931671 487.643707,376.188599 
z"/>
<path fill="#CEA40D" opacity="1.000000" stroke="none" 
	d="
M485.822357,338.160217 
	C486.057770,338.548889 486.117065,339.097504 486.044312,339.815613 
	C485.823578,339.430084 485.734894,338.875122 485.822357,338.160217 
z"/>
<path fill="#CEA40D" opacity="1.000000" stroke="none" 
	d="
M498.655701,411.227936 
	C499.156555,411.514740 499.495972,411.987183 499.813690,412.757874 
	C499.359406,412.508606 498.926819,411.961121 498.655701,411.227936 
z"/>
<path fill="#CEA40D" opacity="1.000000" stroke="none" 
	d="
M523.411682,253.986038 
	C523.315186,254.560089 522.933655,255.199951 522.257324,255.890427 
	C522.350586,255.311310 522.738586,254.681595 523.411682,253.986038 
z"/>
<path fill="#222221" opacity="1.000000" stroke="none" 
	d="
M278.534424,679.955933 
	C289.644196,679.959534 300.291626,679.990295 310.937531,680.132141 
	C323.848389,680.304138 328.006470,684.496460 328.085175,697.238586 
	C328.201050,716.008728 325.360504,718.889648 306.475677,718.923828 
	C279.181091,718.973267 251.886414,718.975098 224.591782,718.996887 
	C222.798355,718.998291 221.004944,718.997070 218.723694,718.997070 
	C218.723694,737.514099 218.723694,755.566040 218.723694,774.875366 
	C224.878174,774.875366 230.785141,774.873596 236.692108,774.875732 
	C257.329651,774.883057 277.967224,774.880615 298.604706,774.915161 
	C300.929840,774.919067 303.254639,775.134216 306.009644,775.282104 
	C312.402008,777.640381 315.288910,782.048157 315.276672,788.404358 
	C315.268982,792.397095 315.448883,796.403870 315.179352,800.379578 
	C314.619537,808.637024 310.356506,812.848450 302.089386,813.007874 
	C290.936249,813.223083 279.776367,813.059326 268.619812,813.128784 
	C253.303757,813.224121 237.988098,813.380554 222.672440,813.529236 
	C221.542801,813.540161 220.414612,813.700134 218.227097,813.875854 
	C218.227097,819.949707 218.234100,825.890381 218.225708,831.831055 
	C218.205460,846.151733 218.275787,860.473450 218.120071,874.792725 
	C218.010864,884.834473 214.032196,889.114746 204.019394,889.710510 
	C197.549042,890.095459 191.021713,890.098572 184.549362,889.740417 
	C174.672028,889.193848 170.463989,884.806213 170.144531,874.897095 
	C169.876389,866.578918 170.017822,858.247437 169.904968,849.457764 
	C169.885971,821.504883 169.955017,794.016174 169.989029,766.527405 
	C170.015198,745.366943 169.995636,724.206421 170.001404,703.045959 
	C170.002045,700.713501 169.986359,698.379395 170.061890,696.048767 
	C170.424042,684.872925 174.838974,680.293213 186.099670,680.170837 
	C204.092316,679.975281 222.088272,680.084045 240.082840,680.065918 
	C252.745682,680.053162 265.408539,680.043457 278.534424,679.955933 
z"/>
<path fill="#D29813" opacity="1.000000" stroke="none" 
	d="
M519.132263,612.417847 
	C550.024292,612.011719 581.063965,611.962158 612.565308,612.011597 
	C611.139404,612.729980 609.254517,613.879395 607.364136,613.888489 
	C582.222229,614.009521 557.079590,613.970764 531.468567,613.981750 
	C527.093323,613.585938 523.186646,613.180176 519.132263,612.417847 
z"/>
<path fill="#D29813" opacity="1.000000" stroke="none" 
	d="
M521.529297,593.037109 
	C520.833374,594.638916 519.793457,596.310913 518.457764,598.132202 
	C519.169739,596.556763 520.177490,594.832031 521.529297,593.037109 
z"/>
<path fill="#D29813" opacity="1.000000" stroke="none" 
	d="
M535.601318,571.051819 
	C535.447144,571.868774 534.980042,572.760254 534.212524,573.734558 
	C534.370789,572.920349 534.829590,572.023315 535.601318,571.051819 
z"/>
<path fill="#D29813" opacity="1.000000" stroke="none" 
	d="
M526.569275,585.029175 
	C526.420532,585.828552 525.970276,586.712708 525.220581,587.667358 
	C525.369995,586.863220 525.818909,585.988525 526.569275,585.029175 
z"/>
<path fill="#D29813" opacity="1.000000" stroke="none" 
	d="
M552.707458,544.092041 
	C552.572510,544.948792 552.105164,545.876709 551.339783,546.926758 
	C551.486206,546.086975 551.930603,545.125122 552.707458,544.092041 
z"/>
<path fill="#D29813" opacity="1.000000" stroke="none" 
	d="
M514.683167,608.230835 
	C515.166199,608.516724 515.492615,608.995117 515.836792,609.768799 
	C515.411926,609.517151 514.969177,608.970215 514.683167,608.230835 
z"/>
<path fill="#D29813" opacity="1.000000" stroke="none" 
	d="
M523.389954,590.042480 
	C523.373291,590.650269 523.067505,591.369629 522.468384,592.198975 
	C522.483704,591.590576 522.792297,590.872314 523.389954,590.042480 
z"/>
<path fill="#D29813" opacity="1.000000" stroke="none" 
	d="
M530.480347,579.046021 
	C530.440430,579.656738 530.094055,580.364075 529.466064,581.198853 
	C529.514282,580.598389 529.843994,579.870544 530.480347,579.046021 
z"/>
<path fill="#F9B50F" opacity="1.000000" stroke="none" 
	d="
M573.731140,511.017883 
	C573.673767,511.823853 573.270264,512.619934 572.550903,513.565063 
	C572.172913,513.111328 572.110779,512.508484 572.024292,511.452820 
	C572.461670,511.002655 572.923340,511.005310 573.731140,511.017883 
z"/>
<path fill="#D29813" opacity="1.000000" stroke="none" 
	d="
M550.712891,547.125610 
	C550.684875,547.785217 550.318176,548.533936 549.667053,549.436035 
	C549.713196,548.797913 550.043701,548.006287 550.712891,547.125610 
z"/>
<path fill="#D29813" opacity="1.000000" stroke="none" 
	d="
M546.489502,554.043152 
	C546.444153,554.656677 546.095032,555.362244 545.453064,556.175598 
	C545.502136,555.567322 545.843933,554.851257 546.489502,554.043152 
z"/>
<path fill="#D29813" opacity="1.000000" stroke="none" 
	d="
M543.652954,558.085449 
	C543.629272,558.742310 543.266296,559.487610 542.630249,560.398804 
	C542.676025,559.767761 542.994873,558.970825 543.652954,558.085449 
z"/>
<path fill="#D29813" opacity="1.000000" stroke="none" 
	d="
M541.410034,562.023987 
	C541.371399,562.626099 541.032471,563.318909 540.417969,564.131592 
	C540.464783,563.539124 540.787292,562.826965 541.410034,562.023987 
z"/>
<path fill="#242321" opacity="1.000000" stroke="none" 
	d="
M780.160034,411.078461 
	C779.458679,409.515533 779.024902,408.065277 778.054260,407.270905 
	C767.492920,398.627441 764.163940,384.256256 770.030151,372.108521 
	C775.042053,361.730011 787.060181,355.939728 798.912720,358.193115 
	C810.595886,360.414276 819.339050,370.387421 820.032959,382.176086 
	C820.626038,392.250153 817.067810,401.333069 813.460510,410.417419 
	C809.177368,421.203796 804.877625,431.983643 800.631775,442.784698 
	C797.875061,449.797577 794.971863,451.964752 787.562744,452.078217 
	C784.069214,452.131744 780.564148,452.051880 777.078247,451.821869 
	C773.148682,451.562592 770.299744,448.041748 771.260010,444.360443 
	C774.125000,433.377411 777.190918,422.446808 780.160034,411.078461 
z"/>
<path fill="#C99512" opacity="1.000000" stroke="none" 
	d="
M755.919922,371.906067 
	C755.953430,363.565277 756.440308,355.007690 756.498169,346.447235 
	C756.531555,341.510895 755.871948,336.569855 755.652832,331.295959 
	C756.407776,332.294434 757.607239,333.643768 757.570984,334.958954 
	C757.232849,347.205353 756.682312,359.445862 755.919922,371.906067 
z"/>
<path fill="#C99512" opacity="1.000000" stroke="none" 
	d="
M743.500000,411.958130 
	C745.014099,407.549988 746.853760,403.047913 748.927002,398.287598 
	C747.382263,402.640991 745.603882,407.252594 743.500000,411.958130 
z"/>
<path fill="#C99512" opacity="1.000000" stroke="none" 
	d="
M752.619507,386.932343 
	C753.137634,383.263092 753.965698,379.446625 755.019165,375.340118 
	C754.472839,378.961761 753.701172,382.873444 752.619507,386.932343 
z"/>
<path fill="#C99512" opacity="1.000000" stroke="none" 
	d="
M755.434753,325.659485 
	C754.249817,322.523529 753.268799,319.098602 752.378052,315.282135 
	C753.525024,318.383881 754.581848,321.877228 755.434753,325.659485 
z"/>
<path fill="#CC9414" opacity="1.000000" stroke="none" 
	d="
M659.445435,544.965088 
	C661.163513,541.709656 663.213257,538.383362 665.578247,534.937500 
	C663.854736,538.176697 661.815918,541.535522 659.445435,544.965088 
z"/>
<path fill="#CD9513" opacity="1.000000" stroke="none" 
	d="
M704.520386,474.989441 
	C705.918579,472.118011 707.646118,469.180481 709.686157,466.120087 
	C708.282288,468.972565 706.566040,471.947937 704.520386,474.989441 
z"/>
<path fill="#CE9513" opacity="1.000000" stroke="none" 
	d="
M641.525269,572.978760 
	C642.862671,570.344238 644.527161,567.634033 646.520142,564.829102 
	C645.183167,567.457214 643.517700,570.180054 641.525269,572.978760 
z"/>
<path fill="#CB9413" opacity="1.000000" stroke="none" 
	d="
M697.386230,485.952759 
	C697.771057,484.680237 698.493958,483.329407 699.509827,481.828491 
	C699.109924,483.077087 698.417114,484.475769 697.386230,485.952759 
z"/>
<path fill="#CE9513" opacity="1.000000" stroke="none" 
	d="
M647.657471,563.973022 
	C647.996155,562.746887 648.641663,561.408203 649.572449,559.914062 
	C649.226624,561.125854 648.595459,562.493103 647.657471,563.973022 
z"/>
<path fill="#CB9413" opacity="1.000000" stroke="none" 
	d="
M686.485535,502.967712 
	C686.783875,501.958801 687.425110,500.873230 688.356445,499.635193 
	C688.040405,500.618805 687.434448,501.754913 686.485535,502.967712 
z"/>
<path fill="#D29813" opacity="1.000000" stroke="none" 
	d="
M623.633667,600.981567 
	C623.895325,599.952576 624.486877,598.834961 625.391541,597.604126 
	C625.124329,598.624878 624.543945,599.758911 623.633667,600.981567 
z"/>
<path fill="#CC9414" opacity="1.000000" stroke="none" 
	d="
M666.649963,534.003052 
	C666.885132,532.981995 667.457825,531.878906 668.292603,530.590210 
	C668.032288,531.576782 667.509888,532.748962 666.649963,534.003052 
z"/>
<path fill="#CB9413" opacity="1.000000" stroke="none" 
	d="
M695.589844,488.966614 
	C695.668152,488.130707 696.043640,487.185303 696.726440,486.142700 
	C696.651489,486.982758 696.269287,487.919922 695.589844,488.966614 
z"/>
<path fill="#C99512" opacity="1.000000" stroke="none" 
	d="
M751.597046,310.260284 
	C751.031860,309.615570 750.563965,308.630035 750.134399,307.311920 
	C750.679810,307.959412 751.187012,308.939453 751.597046,310.260284 
z"/>
<path fill="#D29813" opacity="1.000000" stroke="none" 
	d="
M626.335571,596.901794 
	C626.348389,596.232178 626.696655,595.464355 627.344604,594.558472 
	C627.319946,595.214844 626.995483,596.009216 626.335571,596.901794 
z"/>
<path fill="#D29813" opacity="1.000000" stroke="none" 
	d="
M617.470520,610.001160 
	C617.538757,609.386780 617.919250,608.688416 618.585022,607.877136 
	C618.507812,608.481873 618.145325,609.199524 617.470520,610.001160 
z"/>
<path fill="#D29813" opacity="1.000000" stroke="none" 
	d="
M614.891724,611.778198 
	C615.192993,611.243408 615.832214,610.748169 616.778442,610.205444 
	C616.466919,610.711182 615.848328,611.264404 614.891724,611.778198 
z"/>
<path fill="#D29813" opacity="1.000000" stroke="none" 
	d="
M630.627686,589.952759 
	C630.629150,589.343811 630.924194,588.616089 631.495483,587.747681 
	C631.488281,588.349243 631.204773,589.091614 630.627686,589.952759 
z"/>
<path fill="#C99512" opacity="1.000000" stroke="none" 
	d="
M750.602295,394.038940 
	C750.496765,393.538574 750.625610,392.981262 750.974854,392.230652 
	C751.075745,392.685516 750.956238,393.333771 750.602295,394.038940 
z"/>
<path fill="#CD9513" opacity="1.000000" stroke="none" 
	d="
M713.400635,460.928345 
	C713.437134,460.298126 713.795471,459.572510 714.436157,458.701019 
	C714.386475,459.314423 714.054443,460.073669 713.400635,460.928345 
z"/>
<path fill="#CB9413" opacity="1.000000" stroke="none" 
	d="
M693.565979,491.990234 
	C693.626953,491.399170 693.982727,490.723938 694.627747,489.952881 
	C694.564941,490.540070 694.212830,491.223083 693.565979,491.990234 
z"/>
<path fill="#CB9413" opacity="1.000000" stroke="none" 
	d="
M691.543335,494.980103 
	C691.607666,494.390137 691.967529,493.710815 692.611328,492.927002 
	C692.543091,493.511932 692.190918,494.201355 691.543335,494.980103 
z"/>
<path fill="#CB9413" opacity="1.000000" stroke="none" 
	d="
M689.561523,497.974762 
	C689.599976,497.368988 689.934814,496.665894 690.562256,495.860504 
	C690.522522,496.464630 690.190247,497.171051 689.561523,497.974762 
z"/>
<path fill="#C99512" opacity="1.000000" stroke="none" 
	d="
M749.452393,303.671326 
	C746.323242,297.496857 743.369446,291.046967 740.411865,284.241180 
	C743.481323,290.388824 746.554565,296.892365 749.452393,303.671326 
z"/>
<path fill="#F9B50F" opacity="1.000000" stroke="none" 
	d="
M739.704834,281.433289 
	C739.144348,281.089325 738.619690,280.376068 738.077515,279.322632 
	C738.620239,279.676300 739.180481,280.370178 739.704834,281.433289 
z"/>
<path fill="#F9B50F" opacity="1.000000" stroke="none" 
	d="
M723.835144,259.019897 
	C723.237305,258.805420 722.604004,258.251251 721.926514,257.371460 
	C722.521362,257.590607 723.160583,258.135406 723.835144,259.019897 
z"/>
<path fill="#F9B011" opacity="1.000000" stroke="none" 
	d="
M472.025604,815.921631 
	C468.455627,844.669617 444.420532,860.421509 417.396271,851.908875 
	C403.677460,847.587463 395.502350,837.591797 392.036285,824.055908 
	C387.802032,807.520020 388.985321,791.510681 400.705505,777.987488 
	C411.941132,765.023376 426.797241,762.334290 442.616516,766.238220 
	C458.024994,770.040894 467.367737,780.876404 470.801331,796.179199 
	C472.195892,802.394592 471.689728,809.036377 472.025604,815.921631 
z"/>
<path fill="#CEA40D" opacity="1.000000" stroke="none" 
	d="
M509.191284,430.001770 
	C510.422852,430.886932 511.641388,432.126617 512.875366,433.697021 
	C511.653290,432.803955 510.415771,431.580109 509.191284,430.001770 
z"/>
<path fill="#CEA40D" opacity="1.000000" stroke="none" 
	d="
M513.170532,435.016113 
	C513.994446,435.607941 514.805542,436.531250 515.609619,437.771362 
	C514.787598,437.174652 513.972656,436.261139 513.170532,435.016113 
z"/>
<path fill="#CEA40D" opacity="1.000000" stroke="none" 
	d="
M506.179688,424.985474 
	C506.726105,425.255219 507.251892,425.855560 507.820496,426.758057 
	C507.295197,426.478790 506.727142,425.897430 506.179688,424.985474 
z"/>
<path fill="#F8BC0C" opacity="1.000000" stroke="none" 
	d="
M669.608765,357.469421 
	C665.613342,372.640503 657.138000,383.898926 643.584473,391.052643 
	C620.779846,403.089111 591.381042,394.220490 578.540955,371.571472 
	C564.980408,347.651672 572.241638,317.178528 595.402832,302.522369 
	C623.312805,284.861206 658.885254,299.452393 668.444458,330.010803 
	C671.262146,339.018127 671.863770,347.926575 669.608765,357.469421 
z"/>
</svg>