<svg version="1.2" xmlns="http://www.w3.org/2000/svg" viewBox="0 0 512 512" width="512" height="512"><style>.a{fill:#f00}</style><path class="a" d="m256 0c-103.5 0-196.9 62.4-236.5 158-39.6 95.7-17.7 205.8 55.5 279 73.2 73.2 183.3 95.1 279 55.5 95.6-39.6 158-133 158-236.5 0-33.6-6.7-66.9-19.6-97.9-12.8-31.1-31.7-59.3-55.5-83-23.7-23.8-51.9-42.7-83-55.5-31-12.9-64.3-19.6-97.9-19.6zm0 469.3c-86.3 0-164.1-51.9-197.1-131.7-33-79.7-14.8-171.4 46.3-232.4 61-61.1 152.7-79.3 232.4-46.3 79.8 33 131.7 110.8 131.7 197.1 0 28-5.5 55.7-16.3 81.6-10.7 25.9-26.4 49.4-46.2 69.2-19.8 19.8-43.3 35.5-69.2 46.2-25.9 10.8-53.6 16.3-81.6 16.3zm106.7-213.3c0 2.8-0.6 5.6-1.7 8.2-1 2.6-2.6 4.9-4.6 6.9-2 2-4.3 3.5-6.9 4.6-2.6 1.1-5.4 1.6-8.2 1.6h-64v64c0 5.7-2.2 11.1-6.2 15.1-4 4-9.4 6.3-15.1 6.3-5.7 0-11.1-2.3-15.1-6.3-4-4-6.2-9.4-6.2-15.1v-64h-64c-5.7 0-11.1-2.2-15.1-6.2-4-4-6.3-9.4-6.3-15.1 0-5.7 2.3-11.1 6.3-15.1 4-4 9.4-6.2 15.1-6.2h64v-64c0-5.7 2.2-11.1 6.2-15.1 4-4 9.4-6.3 15.1-6.3 5.7 0 11.1 2.3 15.1 6.3 4 4 6.2 9.4 6.2 15.1v64h64c2.8 0 5.6 0.5 8.2 1.6 2.6 1.1 4.9 2.6 6.9 4.6 2 2 3.6 4.3 4.6 6.9 1.1 2.6 1.7 5.4 1.7 8.2z"/></svg>