<svg version="1.2" xmlns="http://www.w3.org/2000/svg" viewBox="0 0 512 512" width="512" height="512"><style></style><path  d="m85.3 0h64c47.2 0 85.4 38.2 85.4 85.3v64c0 47.2-38.2 85.4-85.4 85.4h-64c-47.1 0-85.3-38.2-85.3-85.4v-64c0-47.1 38.2-85.3 85.3-85.3z"/><path  d="m362.7 0h64c47.1 0 85.3 38.2 85.3 85.3v64c0 47.2-38.2 85.4-85.3 85.4h-64c-47.2 0-85.4-38.2-85.4-85.4v-64c0-47.1 38.2-85.3 85.4-85.3z"/><path  d="m85.3 277.3h64c47.2 0 85.4 38.2 85.4 85.4v64c0 47.1-38.2 85.3-85.4 85.3h-64c-47.1 0-85.3-38.2-85.3-85.3v-64c0-47.2 38.2-85.4 85.3-85.4z"/><path  d="m362.7 277.3h64c47.1 0 85.3 38.2 85.3 85.4v64c0 47.1-38.2 85.3-85.3 85.3h-64c-47.2 0-85.4-38.2-85.4-85.3v-64c0-47.2 38.2-85.4 85.4-85.4z"/></svg>