<svg version="1.2" xmlns="http://www.w3.org/2000/svg" viewBox="0 0 512 512" width="512" height="512"><style>.a{fill:#212121}</style><path class="a" d="m512 64h-421.5l-0.9-7.5c-0.9-7.7-3.2-15.2-6.8-22.1-3.6-6.9-8.4-13.1-14.2-18.2-5.8-5.2-12.5-9.2-19.8-12-7.3-2.8-15-4.2-22.7-4.2h-26.1v42.7h26.1c2.6 0 5.1 0.4 7.6 1.4 2.4 0.9 4.6 2.2 6.5 4 2 1.7 3.6 3.7 4.8 6 1.2 2.3 2 4.8 2.3 7.4l33.8 287.3c0.9 7.7 3.2 15.2 6.8 22.1 3.6 6.9 8.4 13.1 14.2 18.3 5.8 5.1 12.5 9.2 19.8 11.9 7.2 2.8 14.9 4.2 22.7 4.2h282.1v-42.6h-282.1c-2.6 0-5.2-0.5-7.6-1.4-2.4-1-4.6-2.3-6.6-4-1.9-1.8-3.5-3.8-4.7-6.1-1.2-2.3-2-4.8-2.3-7.4l-2.8-23.8h345.2z"/><path fill-rule="evenodd" class="a" d="m149.3 512c-23.6 0-42.6-19.1-42.6-42.7 0-23.6 19-42.6 42.6-42.6 23.6 0 42.7 19 42.7 42.6 0 23.6-19.1 42.7-42.7 42.7z"/><path fill-rule="evenodd" class="a" d="m362.7 512c-23.6 0-42.7-19.1-42.7-42.7 0-23.6 19.1-42.6 42.7-42.6 23.6 0 42.6 19 42.6 42.6 0 23.6-19 42.7-42.6 42.7z"/></svg>