<svg version="1.2" xmlns="http://www.w3.org/2000/svg" viewBox="0 0 512 512" width="512" height="512"><style>.a{fill:#ddb501}</style><path class="a" d="m497 192.7c-12.2-14-29.8-22-48.4-22h-1.8c-10.6-95.9-92.1-170.7-190.8-170.7-98.7 0-180.2 74.8-190.8 170.7h-1.2c-18.6 0-36.2 8-48.3 22-12.2 14-17.7 32.6-15.1 51l22.7 158.4c8.9 62.7 63.4 109.9 126.7 109.9h212.7c63.2 0 117.7-47.3 126.7-109.9l22.6-158.4c2.6-18.4-2.8-36.9-15-51zm-241-150c75.1 0 137.4 55.7 147.8 128h-295.6c10.4-72.3 72.7-128 147.8-128zm-85.3 362.6c0 11.8-9.6 21.4-21.4 21.4-11.8 0-21.3-9.6-21.3-21.4v-128c0-11.8 9.5-21.3 21.3-21.3 11.8 0 21.4 9.5 21.4 21.3zm106.6 0c0 11.8-9.5 21.4-21.3 21.4-11.8 0-21.3-9.6-21.3-21.4v-128c0-11.8 9.5-21.3 21.3-21.3 11.8 0 21.3 9.5 21.3 21.3zm106.7 0c0 11.8-9.5 21.4-21.3 21.4-11.8 0-21.4-9.6-21.4-21.4v-128c0-11.8 9.6-21.3 21.4-21.3 11.8 0 21.3 9.5 21.3 21.3z"/></svg>