<svg version="1.2" xmlns="http://www.w3.org/2000/svg" viewBox="0 0 512 512" width="512" height="512"><style>.a{fill:#ddb501}</style><path class="a" d="m373.3 19.6c-11.9 0.1-23.8 1.9-35.3 5.2-11.5 3.3-22.5 8-32.8 14.2-10.2 6.2-19.6 13.6-28 22.2-8.3 8.6-15.4 18.3-21.2 28.8-5.8-10.5-12.9-20.2-21.2-28.8-8.4-8.6-17.8-16-28-22.2-10.3-6.2-21.3-10.9-32.8-14.2-11.5-3.3-23.4-5.1-35.3-5.2-19 0.8-37.6 5.3-54.8 13.3-17.2 8-32.7 19.3-45.6 33.3-12.9 13.9-22.9 30.3-29.4 48.1-6.6 17.8-9.6 36.7-8.9 55.7 0 144.5 233.7 311.4 243.7 318.5l12.3 8.7 12.3-8.7c10-7 243.7-174 243.7-318.5 0.7-19-2.3-37.9-8.9-55.7-6.5-17.8-16.5-34.2-29.4-48.1-12.9-14-28.4-25.3-45.6-33.3-17.2-8-35.8-12.5-54.8-13.3z"/></svg>