<svg version="1.2" xmlns="http://www.w3.org/2000/svg" viewBox="0 0 512 512" width="512" height="512"><style>.a{fill:#ddb501}</style><path class="a" d="m425.5 56.4l-169.5-56.2-169.5 56.2c-6.3 2.1-12.3 5.2-17.7 9.1-5.4 4-10.1 8.7-14 14.2-3.9 5.4-7 11.4-9 17.7-2.1 6.4-3.1 13-3.1 19.7v138.9c0 160.5 196.2 249.2 204.6 252.8l7.6 3.4 7.8-2.6c8.5-2.8 206.6-70.6 206.6-253.6v-138.9c0-6.7-1-13.3-3.1-19.7-2-6.3-5.1-12.3-9-17.7-3.9-5.5-8.6-10.2-14-14.2-5.4-3.9-11.4-7-17.7-9.1zm-160 242q-2.8 2.8-6.1 5.1-3.3 2.2-7 3.7-3.7 1.5-7.5 2.3-3.9 0.7-7.9 0.7h-0.7q-4.1 0-8-0.9-4-0.9-7.7-2.5-3.7-1.7-7-4-3.3-2.4-6-5.4l-49.2-51.2 30.8-29.5 47.9 50 110.5-110.6 30.1 30.2z"/></svg>